<svg xmlns="http://www.w3.org/2000/svg" viewBox="0 0 206 211.4">
    <defs>
        <style>.cls-1{fill:#231f20;stroke:#231f20;stroke-miterlimit:10;}.cls-2{fill:#fff;}</style>
    </defs>
    <g id="Layer_2">
        <g id="Layer_1-2">
            <rect class="cls-1" x="0.5" y="0.5" width="205" height="210.4" />
            <path class="cls-2"
                d="M107.53,155.12l-4.74,20.74L100,188a12.31,12.31,0,0,1-.56,2.49s0,.12,0,.1-.51-1.87-.57-2.11q-.68-2.5-1.27-5c-1.73-7.18-3.19-14.42-4.93-21.59a52.05,52.05,0,0,0-2.12-7.59c-.76-1.85-2.73-2.16-4.39-2.84a29.65,29.65,0,0,1-4.93-2.58,24.48,24.48,0,0,1-9.43-11.16,21.77,21.77,0,0,1-.94-3.07c-.1-.39,0,.43,0-.13s0-.9,0-1.35l-.48-25.43c-.07-4-.3-8-.48-12L68.63,67.18l-1-21.12a24.14,24.14,0,0,1,3.26-13.9,20,20,0,0,1,8.86-8.08A26.68,26.68,0,0,1,109,28.75a28.93,28.93,0,0,1,6.56,8.61,54.51,54.51,0,0,1,2.33,5.91l1.78,5c.54,1.51,3,.86,2.42-.66-1.42-3.94-2.61-8.09-4.53-11.81a31.06,31.06,0,0,0-16-14.52A29.13,29.13,0,0,0,80.86,21a22,22,0,0,0-9.94,6.89A25.65,25.65,0,0,0,65.65,38.8a35.74,35.74,0,0,0-.4,9.06l.48,10.55,1.36,30.11c.26,5.66.59,11.33.77,17,.25,7.79.29,15.59.44,23.38a35.76,35.76,0,0,0,.24,6.63,23.6,23.6,0,0,0,5,9.78,28.06,28.06,0,0,0,7,6.06,34.62,34.62,0,0,0,5.14,2.55c.77.3,2.1.49,2.55,1.24a8,8,0,0,1,.56,1.73c2,6.66,3.29,13.55,4.81,20.34.84,3.71,1.69,7.43,2.65,11.11.36,1.36.54,3.49,1.81,4.33a2.49,2.49,0,0,0,3.67-1.19,15.39,15.39,0,0,0,.52-2.13l1.15-5,6.07-26.59.44-1.93c.36-1.57-2-2.24-2.41-.67Z" />
            <path class="cls-2"
                d="M119.36,47.45c.66,1.63,1.33,2.7,1.15,4.56-.29,2.93-2.25,5.1-3.53,7.62a10.73,10.73,0,0,0,2.22,13c4,3.85,8.08,7.65,12.11,11.48L137,89.57l.69.65.15.17c.21.22-.14-.22.06.07l.25.41c.16.3.06,0,.16.41a2.19,2.19,0,0,1-.64,2.06c-1.55,1.78-4.13,2.63-6.27,3.37-3.3,1.13-8.09,3.22-7.7,7.48a7.48,7.48,0,0,0,2.61,4.65,29.86,29.86,0,0,0,2.34,2,1.29,1.29,0,0,0,.16.09c.07,0,.26.17-.06,0l.1.09s0-.15,0,0-.06-.29-.06-.29c0-.34.14-.29,0-.24a16.4,16.4,0,0,1-2.38,1c-1.22.34-2.62.4-3.55,1.36-1.65,1.7-.64,3.92,1.24,4.82,1,.5,2.38,1.19,2,2.56a3.54,3.54,0,0,1-1.8,2.07,12.06,12.06,0,0,1-3.12.83,5.35,5.35,0,0,0-3.76,7.1c.51,1.35,1.52,2.53,1.63,3.94a5,5,0,0,1-.82,3.07c-1.73,2.74-5.19,4.15-8.17,5a40.69,40.69,0,0,1-16.69.93c-3.44-.53-7.11-1.83-9.23-4.76a8.2,8.2,0,0,1-1.29-2.62,9.56,9.56,0,0,1-.24-1.06c-.06-.35,0,.23,0-.08,0-.1,0-.19,0-.28-.07-2.1-.11-4.21-.17-6.31l-1-38.22-.79-30.48a12.28,12.28,0,0,1,2.79-8.41c2.61-2.88,7.27-3.28,10.65-1.55,2.79,1.43,4.23,4.26,4.81,7.23.42,2.22,0,4.6-.22,6.95L96.91,80.78,93.18,117,93,119.24c-.16,1.6,2.34,1.59,2.5,0l3-29.37,2.13-20.7c.34-3.36.87-6.75,1-10.12.26-5.25-2.74-10.84-7.81-12.6-3.9-1.35-8.65-.79-11.69,2.13a13.83,13.83,0,0,0-3.74,7.69,32.26,32.26,0,0,0-.15,6.37l.41,16.06,1.08,42.11L80.07,133a11.36,11.36,0,0,0,2.29,7c2.34,3,6,4.63,9.66,5.32a43.94,43.94,0,0,0,17.21-.44c5.5-1.23,14.24-5.33,12-12.5-.49-1.59-2.13-3.16-1.69-4.9a3.53,3.53,0,0,1,2.21-2c.38-.15-.25,0,.11,0s.54-.06.81-.1a9.5,9.5,0,0,0,2.43-.75,5.94,5.94,0,0,0,3.57-4.74,3.91,3.91,0,0,0-1.28-3.07,6.9,6.9,0,0,0-1.38-1c-.33-.19-1.34-.43-1.47-.83-.27-.81,2.11-1,2.52-1.12a10,10,0,0,0,3-1.21,2.13,2.13,0,0,0,.88-2.94,2.82,2.82,0,0,0-.88-.84l-.16-.1c.53.4-.14-.14-.27-.26-1.3-1.13-2.66-2.13-3.23-3.56-1.58-4,5.25-5.5,7.75-6.52,2.84-1.15,7-3.26,6.69-7a5.07,5.07,0,0,0-1.61-3.15c-4.21-4.11-8.55-8.1-12.81-12.15l-5.31-5a9.52,9.52,0,0,1-2.65-3.91c-1-3.11.29-5.87,2-8.47a14.13,14.13,0,0,0,2.59-7.2,11.17,11.17,0,0,0-1.27-4.7c-.6-1.47-3-.82-2.41.67Z" />
        </g>
    </g>
</svg>