<svg xmlns="http://www.w3.org/2000/svg" viewBox="0 0 75.74 173.86">
    <defs>
        <style>.cls-1{fill:#fff;}</style>
    </defs>
    <g id="Layer_2">
        <g id="Layer_1-2">
            <path class="cls-1"
                d="M42.38,135.91l-4.74,20.74-2.77,12.14a12.31,12.31,0,0,1-.56,2.49c0,.05,0,.12,0,.1s-.51-1.88-.57-2.11q-.67-2.51-1.27-5c-1.73-7.18-3.2-14.42-4.93-21.6a52.44,52.44,0,0,0-2.13-7.59c-.75-1.84-2.72-2.15-4.38-2.83a29.26,29.26,0,0,1-4.93-2.58,24.48,24.48,0,0,1-9.43-11.16,22.6,22.6,0,0,1-.94-3.07c-.1-.39,0,.43,0-.13s0-.91,0-1.35L5.25,88.49c-.07-4-.3-8-.48-11.95L3.48,48l-1-21.13A24.13,24.13,0,0,1,5.78,13a20,20,0,0,1,8.86-8.08A27.9,27.9,0,0,1,24,2.49a27.72,27.72,0,0,1,19.86,7,29.1,29.1,0,0,1,6.56,8.62,52.48,52.48,0,0,1,2.32,5.91l1.79,5c.54,1.5,3,.85,2.41-.67-1.41-3.93-2.6-8.08-4.52-11.81a31.14,31.14,0,0,0-16-14.52,29.13,29.13,0,0,0-20.74-.28A22,22,0,0,0,5.77,8.65,25.69,25.69,0,0,0,.5,19.59a35.68,35.68,0,0,0-.4,9.05L.58,39.2,1.94,69.3c.26,5.67.59,11.34.77,17,.25,7.79.29,15.6.44,23.39a35.79,35.79,0,0,0,.24,6.63,23.72,23.72,0,0,0,5,9.78,28,28,0,0,0,7,6.05,32.78,32.78,0,0,0,5.14,2.55c.77.31,2.1.5,2.55,1.25a7.87,7.87,0,0,1,.56,1.72c2,6.67,3.28,13.56,4.81,20.34.84,3.72,1.69,7.44,2.65,11.12.36,1.36.54,3.49,1.81,4.32a2.48,2.48,0,0,0,3.67-1.18,15.39,15.39,0,0,0,.52-2.13l1.15-5,6.07-26.6.44-1.93c.35-1.56-2.06-2.23-2.41-.66Z" />
            <path class="cls-1"
                d="M54.21,28.23c.66,1.64,1.33,2.7,1.15,4.57-.29,2.93-2.25,5.1-3.53,7.62a10.71,10.71,0,0,0,2.22,13c4,3.86,8.08,7.66,12.11,11.49l5.71,5.42.69.65.15.16c.2.23-.14-.22.05.08.09.13.18.27.26.41.16.3,0,0,.16.41a2.19,2.19,0,0,1-.64,2.06c-1.55,1.78-4.13,2.62-6.27,3.36-3.3,1.14-8.09,3.22-7.7,7.48a7.38,7.38,0,0,0,2.61,4.65,30,30,0,0,0,2.34,2,1.29,1.29,0,0,1,.16.09c.07,0,.25.17-.06,0l.1.09s0-.15,0,0-.07-.29-.06-.3c0-.34.14-.28,0-.24a15.38,15.38,0,0,1-2.38,1c-1.22.33-2.62.4-3.55,1.35-1.65,1.71-.64,3.93,1.23,4.83,1.06.5,2.39,1.19,2,2.56a3.52,3.52,0,0,1-1.8,2.06,11.67,11.67,0,0,1-3.12.83,5.36,5.36,0,0,0-3.76,7.11c.51,1.35,1.52,2.53,1.63,3.94a4.93,4.93,0,0,1-.83,3.07c-1.72,2.74-5.18,4.15-8.16,5a40.74,40.74,0,0,1-16.7.93c-3.43-.53-7.1-1.83-9.22-4.76a8.31,8.31,0,0,1-1.29-2.62,10.1,10.1,0,0,1-.24-1.06c-.06-.35,0,.22,0-.09a2.45,2.45,0,0,1,0-.27c-.07-2.11-.11-4.21-.17-6.32l-1-38.21L15.52,40a12.28,12.28,0,0,1,2.79-8.41C20.91,28.72,25.58,28.32,29,30c2.79,1.43,4.23,4.26,4.8,7.24.43,2.22,0,4.6-.21,6.95L31.76,61.57,28,97.8,27.8,100c-.16,1.59,2.34,1.58,2.5,0l3-29.38L35.46,50c.34-3.36.87-6.75,1-10.12.26-5.25-2.74-10.85-7.82-12.6C24.79,25.89,20,26.45,17,29.36a13.9,13.9,0,0,0-3.74,7.69,32.37,32.37,0,0,0-.15,6.38l.41,16.06,1.08,42.1.31,12.24a11.44,11.44,0,0,0,2.3,7c2.34,3,6,4.62,9.66,5.31a43.88,43.88,0,0,0,17.2-.43c5.51-1.23,14.25-5.34,12.06-12.5-.49-1.59-2.13-3.16-1.69-4.9a3.53,3.53,0,0,1,2.21-2c.37-.15-.26,0,.1,0s.55-.06.82-.11a9.1,9.1,0,0,0,2.43-.74,5.91,5.91,0,0,0,3.56-4.75,3.91,3.91,0,0,0-1.27-3.07,6.85,6.85,0,0,0-1.38-1c-.33-.19-1.34-.43-1.47-.83-.27-.81,2.11-1,2.52-1.12a10,10,0,0,0,3-1.21,2.13,2.13,0,0,0,.88-2.94,2.85,2.85,0,0,0-.88-.85,1.29,1.29,0,0,1-.16-.09c.52.39-.14-.14-.27-.26-1.3-1.13-2.66-2.13-3.23-3.56-1.58-4,5.25-5.51,7.74-6.52,2.85-1.15,7-3.27,6.7-7A5.06,5.06,0,0,0,74.1,69c-4.2-4.12-8.54-8.1-12.8-12.15l-5.31-5a9.59,9.59,0,0,1-2.65-3.91c-1-3.12.28-5.87,2-8.47a14.13,14.13,0,0,0,2.59-7.2,11.17,11.17,0,0,0-1.27-4.7c-.6-1.47-3-.83-2.41.66Z" />
        </g>
    </g>
</svg>