<?xml version="1.0" encoding="UTF-8"?>
<svg xmlns="http://www.w3.org/2000/svg" viewBox="0 0 405 352.41">
    <defs>
        <style>
            .d,.e{fill:#ffcc06;}.f{fill:#ee9721;}.f,.e,.g,.h,.i,.j,.k{stroke:#231f20;stroke-miterlimit:10;}.g{fill:#fede29;}.h{fill:#fee84f;}.i{fill:#fdb715;}.j{fill:#faa71b;}.k{fill:none;}
        </style>
    </defs>
    <g id="a" />
    <g id="b">
        <g id="c">
            <polygon class="k"
                points="103.74 351.91 .58 179.62 99.69 3.76 301.74 .5 404.43 173.85 305.16 350.06 103.74 351.91" />
            <path class="h"
                d="M262.93,69L100.07,3.91c-.08-.03-.06-.16,.03-.16L301.19,.51c.24,0,.4,.26,.28,.47l-38.54,68.01Z" />
            <path class="d"
                d="M265.05,281.93L79.31,177.73c-.18-.1-.18-.36,0-.46l183.04-108.03c.18-.1,.4,.02,.4,.23l2.69,212.23c0,.21-.22,.34-.4,.24Z" />
            <path class="i"
                d="M404.08,174.12l-137.9,107.62c-.22,.17-.54,.02-.54-.26l-2.68-211.37c0-.45,.51-.72,.88-.45l140.24,103.92c.18,.13,.18,.4,0,.54Z" />
            <path class="e"
                d="M301.68,.62l-38.74,68.38,140.98,104.47c.11,.08,.26-.05,.19-.17L301.81,.62c-.03-.05-.11-.05-.14,0Z" />
            <path class="e"
                d="M.99,179.61l78.1-2.11L99.66,3.94s-.05-.06-.07-.02L.78,179.26c-.09,.16,.03,.35,.21,.35Z" />
            <path class="i"
                d="M103.65,351.28l-24.54-173.67c0-.06-.07-.11-.13-.11L.8,179.62c-.1,0-.16,.11-.11,.19l102.72,171.56c.07,.12,.26,.05,.24-.08Z" />
            <path class="k"
                d="M265.64,282.16l-161.26,69.48c-.32,.14-.69-.07-.74-.42l-24.52-173.5c-.01-.09,.08-.15,.16-.11l186.35,104.55Z" />
            <path class="f"
                d="M304.91,349.63l-39.14-67.25c-.07-.13-.23-.18-.37-.12l-159.94,68.91c-.38,.16-.26,.73,.15,.73l199.04-1.83c.22,0,.36-.24,.25-.44Z" />
            <path class="j"
                d="M404.29,173.95l-138.65,108.21,39.38,67.66c.06,.11,.22,.11,.29,0l99.04-175.82s-.02-.07-.05-.04Z" />
            <path class="j"
                d="M103.67,351.42l-24.45-173.06c-.05-.35,.32-.61,.63-.43l185.38,104.01c.17,.09,.15,.34-.02,.41l-161.02,69.37c-.23,.1-.49-.05-.52-.29Z" />
            <path class="g"
                d="M99.61,4.37l-20.44,172.49c-.03,.26,.25,.45,.48,.31l182.73-107.85c.23-.13,.2-.47-.04-.57L100.26,3.99c-.29-.12-.61,.07-.65,.38Z" />
        </g>
    </g>
</svg>